<svg height="1310" width="720" xmlns="http://www.w3.org/2000/svg">
<rect height="1310" fill="#555" width="720"></rect>
<text fill="#7f7" font-family="Courier New" font-size="12" xml:space="preserve">
<tspan x="10" y="26">4 megabytes installed</tspan>
<tspan x="10" y="42"></tspan>
<tspan x="10" y="58">node_modules</tspan>
<tspan x="10" y="74">└─┬ gulp-colorguard@1.1.0 </tspan>
<tspan x="10" y="90">  ├─┬ colorguard@0.3.0 </tspan>
<tspan x="10" y="106">  │ ├── color-diff@0.1.7 </tspan>
<tspan x="10" y="122">  │ ├─┬ pipetteur@1.0.1 </tspan>
<tspan x="10" y="138">  │ │ ├── onecolor@2.5.0 </tspan>
<tspan x="10" y="154">  │ │ └─┬ synesthesia@1.0.1 </tspan>
<tspan x="10" y="170">  │ │   └── css-color-names@0.0.3 </tspan>
<tspan x="10" y="186">  │ ├─┬ rework@1.0.1 </tspan>
<tspan x="10" y="202">  │ │ ├── convert-source-map@0.3.5 </tspan>
<tspan x="10" y="218">  │ │ └─┬ css@2.2.1 </tspan>
<tspan x="10" y="234">  │ │   └── source-map@0.1.43 </tspan>
<tspan x="10" y="250">  │ ├── rework-walk@1.0.0 </tspan>
<tspan x="10" y="266">  │ ├─┬ source-map@0.2.0 </tspan>
<tspan x="10" y="282">  │ │ └── amdefine@1.0.1 </tspan>
<tspan x="10" y="298">  │ ├─┬ source-map-resolve@0.3.1 </tspan>
<tspan x="10" y="314">  │ │ ├── atob@1.1.3 </tspan>
<tspan x="10" y="330">  │ │ ├── resolve-url@0.2.1 </tspan>
<tspan x="10" y="346">  │ │ ├── source-map-url@0.3.0 </tspan>
<tspan x="10" y="362">  │ │ └── urix@0.1.0 </tspan>
<tspan x="10" y="378">  │ └── yargs@1.3.3 </tspan>
<tspan x="10" y="394">  ├─┬ gulp-util@3.0.8 </tspan>
<tspan x="10" y="410">  │ ├── array-differ@1.0.0 </tspan>
<tspan x="10" y="426">  │ ├── array-uniq@1.0.3 </tspan>
<tspan x="10" y="442">  │ ├── beeper@1.1.1 </tspan>
<tspan x="10" y="458">  │ ├─┬ chalk@1.1.3 </tspan>
<tspan x="10" y="474">  │ │ ├── ansi-styles@2.2.1 </tspan>
<tspan x="10" y="490">  │ │ ├── escape-string-regexp@1.0.5 </tspan>
<tspan x="10" y="506">  │ │ ├─┬ has-ansi@2.0.0 </tspan>
<tspan x="10" y="522">  │ │ │ └── ansi-regex@2.1.1 </tspan>
<tspan x="10" y="538">  │ │ ├── strip-ansi@3.0.1 </tspan>
<tspan x="10" y="554">  │ │ └── supports-color@2.0.0 </tspan>
<tspan x="10" y="570">  │ ├── dateformat@2.0.0 </tspan>
<tspan x="10" y="586">  │ ├─┬ fancy-log@1.3.0 </tspan>
<tspan x="10" y="602">  │ │ └── time-stamp@1.0.1 </tspan>
<tspan x="10" y="618">  │ ├─┬ gulplog@1.0.0 </tspan>
<tspan x="10" y="634">  │ │ └── glogg@1.0.0 </tspan>
<tspan x="10" y="650">  │ ├─┬ has-gulplog@0.1.0 </tspan>
<tspan x="10" y="666">  │ │ └── sparkles@1.0.0 </tspan>
<tspan x="10" y="682">  │ ├── lodash._reescape@3.0.0 </tspan>
<tspan x="10" y="698">  │ ├── lodash._reevaluate@3.0.0 </tspan>
<tspan x="10" y="714">  │ ├── lodash._reinterpolate@3.0.0 </tspan>
<tspan x="10" y="730">  │ ├─┬ lodash.template@3.6.2 </tspan>
<tspan x="10" y="746">  │ │ ├── lodash._basecopy@3.0.1 </tspan>
<tspan x="10" y="762">  │ │ ├── lodash._basetostring@3.0.1 </tspan>
<tspan x="10" y="778">  │ │ ├── lodash._basevalues@3.0.0 </tspan>
<tspan x="10" y="794">  │ │ ├── lodash._isiterateecall@3.0.9 </tspan>
<tspan x="10" y="810">  │ │ ├─┬ lodash.escape@3.2.0 </tspan>
<tspan x="10" y="826">  │ │ │ └── lodash._root@3.0.1 </tspan>
<tspan x="10" y="842">  │ │ ├─┬ lodash.keys@3.1.2 </tspan>
<tspan x="10" y="858">  │ │ │ ├── lodash._getnative@3.9.1 </tspan>
<tspan x="10" y="874">  │ │ │ ├── lodash.isarguments@3.1.0 </tspan>
<tspan x="10" y="890">  │ │ │ └── lodash.isarray@3.0.4 </tspan>
<tspan x="10" y="906">  │ │ ├── lodash.restparam@3.6.1 </tspan>
<tspan x="10" y="922">  │ │ └── lodash.templatesettings@3.1.1 </tspan>
<tspan x="10" y="938">  │ ├── minimist@1.2.0 </tspan>
<tspan x="10" y="954">  │ ├─┬ multipipe@0.1.2 </tspan>
<tspan x="10" y="970">  │ │ └─┬ duplexer2@0.0.2 </tspan>
<tspan x="10" y="986">  │ │   └── readable-stream@1.1.14 </tspan>
<tspan x="10" y="1002">  │ ├── object-assign@3.0.0 </tspan>
<tspan x="10" y="1018">  │ ├── replace-ext@0.0.1 </tspan>
<tspan x="10" y="1034">  │ ├─┬ through2@2.0.3 </tspan>
<tspan x="10" y="1050">  │ │ └─┬ readable-stream@2.2.9 </tspan>
<tspan x="10" y="1066">  │ │   ├── buffer-shims@1.0.0 </tspan>
<tspan x="10" y="1082">  │ │   ├── isarray@1.0.0 </tspan>
<tspan x="10" y="1098">  │ │   ├── process-nextick-args@1.0.7 </tspan>
<tspan x="10" y="1114">  │ │   ├── string_decoder@1.0.0 </tspan>
<tspan x="10" y="1130">  │ │   └── util-deprecate@1.0.2 </tspan>
<tspan x="10" y="1146">  │ └─┬ vinyl@0.5.3 </tspan>
<tspan x="10" y="1162">  │   ├── clone@1.0.2 </tspan>
<tspan x="10" y="1178">  │   └── clone-stats@0.0.1 </tspan>
<tspan x="10" y="1194">  └─┬ through2@0.6.5 </tspan>
<tspan x="10" y="1210">    ├─┬ readable-stream@1.0.34 </tspan>
<tspan x="10" y="1226">    │ ├── core-util-is@1.0.2 </tspan>
<tspan x="10" y="1242">    │ ├── inherits@2.0.3 </tspan>
<tspan x="10" y="1258">    │ ├── isarray@0.0.1 </tspan>
<tspan x="10" y="1274">    │ └── string_decoder@0.10.31 </tspan>
<tspan x="10" y="1290">    └── xtend@4.0.1</tspan>
</text>
</svg>
